<svg xmlns="http://www.w3.org/2000/svg" xmlns:xlink="http://www.w3.org/1999/xlink" width="1920" zoomAndPan="magnify" viewBox="0 0 1440 809.999993" height="1080" preserveAspectRatio="xMidYMid meet" version="1.0"><defs><clipPath id="76d45e71cc"><path d="M 767 172.347656 L 915.75 172.347656 L 915.75 660.59375 L 767 660.59375 Z M 767 172.347656 " clip-rule="nonzero"/></clipPath><clipPath id="f1a8eba182"><path d="M 730 124.5 L 883 124.5 L 883 219 L 730 219 Z M 730 124.5 " clip-rule="nonzero"/></clipPath><clipPath id="418fa74de7"><path d="M 822 575 L 885.667969 575 L 885.667969 684.617188 L 822 684.617188 Z M 822 575 " clip-rule="nonzero"/></clipPath></defs><path fill="#000000" d="M 730.328125 489.761719 C 761.460938 481.808594 795.210938 477.960938 825.886719 467.796875 C 822.574219 448.90625 819.152344 429.953125 818.257812 410.753906 C 817.328125 390.777344 819.445312 370.910156 820.84375 351.003906 C 823 320.355469 820.207031 290.386719 808.597656 261.679688 C 802.832031 247.433594 793.695312 238.035156 780.894531 229.863281 C 781.210938 230.574219 781.046875 231.820312 781.335938 232.609375 C 771.40625 231.859375 765.855469 241.101562 760.222656 247.828125 C 752.726562 256.796875 740.328125 264.988281 735.453125 275.71875 C 730.421875 286.78125 738.1875 299.09375 741.171875 309.652344 C 745.519531 325.019531 744.183594 340.839844 740.257812 356.152344 C 735.691406 373.917969 727.328125 390.085938 718.664062 406.144531 C 712.902344 389.40625 704.382812 366.636719 706.777344 348.703125 C 707.972656 339.71875 712.527344 331.492188 712.414062 322.273438 C 712.28125 311.640625 708.699219 300.078125 705.5625 289.988281 C 693.921875 293.96875 682.644531 289.496094 679.292969 276.949219 C 673.808594 281.277344 665.808594 283.257812 661.628906 288.574219 C 657.460938 293.867188 654.078125 300.34375 651.386719 306.480469 C 643.808594 323.777344 640.867188 342.582031 637.246094 360.980469 C 633.371094 380.714844 630.328125 400.617188 629.039062 420.703125 C 628.320312 431.851562 628.175781 443.035156 628.726562 454.191406 C 629.640625 472.726562 630.789062 492.125 634.527344 510.320312 C 637.378906 524.199219 644.925781 531.828125 656.128906 537.460938 C 656.128906 537.460938 656.128906 537.460938 656.128906 537.46875 C 656.261719 537.535156 656.40625 537.59375 656.542969 537.660156 C 657.429688 538.101562 658.335938 538.527344 659.273438 538.945312 C 659.640625 539.109375 660.003906 539.269531 660.378906 539.429688 C 661.5 539.917969 662.640625 540.390625 663.824219 540.851562 C 666.765625 542 669.847656 543.183594 672.898438 544.117188 C 672.964844 544.140625 673.035156 544.15625 673.101562 544.179688 C 683.148438 547.21875 692.746094 547.417969 695.648438 534.316406 C 698.914062 536.351562 701.789062 540.125 705.730469 540.789062 C 712.691406 541.972656 719.441406 527.996094 724.484375 531.003906 C 726.207031 532.03125 727.140625 540.742188 735.878906 536.78125 C 740.929688 534.484375 738.136719 520.742188 737.277344 517.195312 C 734.753906 506.792969 730.273438 500.476562 730.328125 489.761719 " fill-opacity="1" fill-rule="nonzero"/><path fill="#000000" d="M 659.792969 264.019531 C 670.054688 256.558594 681.253906 240.238281 683.589844 228.109375 C 685.457031 218.789062 677.992188 196.867188 668.191406 194.070312 C 622.929688 179.617188 580.464844 227.183594 553.867188 257.960938 C 549.664062 263.085938 523.539062 286.402344 529.601562 294.796875 C 536.136719 303.191406 566.933594 280.808594 569.734375 292.464844 C 571.597656 299.460938 532.867188 333.035156 559 325.574219 L 558.066406 334.433594 C 561.335938 337.230469 574.863281 342.363281 578.597656 340.5 C 582.796875 338.632812 584.199219 327.910156 586.996094 323.710938 C 592.597656 316.71875 600.996094 310.652344 607.0625 303.65625 C 613.132812 297.132812 618.730469 289.667969 625.261719 283.140625 C 631.328125 277.074219 637.394531 271.949219 645.328125 269.152344 C 650.457031 267.28125 655.59375 267.28125 659.792969 264.019531 " fill-opacity="1" fill-rule="nonzero"/><path fill="#c86868" d="M 634.527344 510.328125 C 630.789062 492.125 629.640625 472.726562 628.714844 454.191406 C 628.167969 443.035156 628.328125 431.84375 629.039062 420.710938 C 629.054688 420.515625 629.066406 420.335938 629.082031 420.136719 L 611.332031 388.601562 C 611.960938 418.011719 617.28125 447.222656 619.480469 476.558594 C 622.765625 517.128906 622.65625 558.453125 619.6875 599.292969 C 619.28125 604.300781 613.515625 624.617188 617.113281 633.496094 C 620.207031 641.152344 629.808594 645.164062 635.265625 641.527344 C 636.976562 640.390625 632.941406 635.332031 634.25 631.863281 C 639.679688 617.28125 643.90625 599.890625 647.65625 581.722656 C 650.664062 567.132812 653.367188 552.03125 656.128906 537.46875 C 644.914062 531.84375 637.367188 524.210938 634.527344 510.328125 " fill-opacity="1" fill-rule="nonzero"/><path fill="#c86868" d="M 707.753906 637.835938 C 710.148438 622.445312 710.789062 604.566406 710.789062 586.015625 C 710.804688 570.890625 710.402344 555.304688 710.160156 540.28125 C 708.902344 540.855469 707.476562 541.089844 705.738281 540.800781 C 701.789062 540.128906 698.90625 536.351562 695.648438 534.320312 C 693.039062 546.128906 684.992188 547.136719 676.078125 545 C 680.527344 566.136719 684.152344 587.472656 686.953125 608.847656 C 687.554688 613.839844 685.984375 634.894531 691.304688 642.882812 C 695.871094 649.738281 706.105469 651.742188 710.707031 647.097656 C 712.164062 645.636719 707.179688 641.484375 707.753906 637.835938 " fill-opacity="1" fill-rule="nonzero"/><path fill="#c86868" d="M 789.863281 344.605469 C 789.863281 344.605469 796.414062 337.210938 793.328125 333.804688 C 790.246094 330.402344 778.679688 344.757812 770.078125 344.582031 C 761.46875 344.40625 725.324219 336.230469 703.097656 315.980469 C 699.25 312.257812 696.46875 306.121094 694.144531 301.394531 C 692.363281 297.769531 690.832031 293.726562 689.097656 289.777344 C 695.441406 292.875 701.59375 292.1875 707.035156 289.054688 C 707.246094 290.050781 707.597656 290.847656 708.105469 291.410156 C 708.953125 292.34375 710.390625 292.820312 712.386719 292.820312 C 715.050781 292.820312 718.609375 291.960938 722.726562 290.316406 C 733.742188 286.140625 740.257812 277.402344 743.855469 261.980469 C 746.535156 250.503906 740.339844 234.585938 733.15625 225.433594 L 732.351562 224.40625 C 728.523438 219.519531 724.566406 214.464844 719.679688 211.070312 C 717.117188 209.285156 714.714844 208.488281 711.898438 208.488281 C 709.3125 208.488281 706.574219 209.148438 702.992188 210.207031 C 695.117188 212.542969 684.503906 218.847656 677.1875 225.546875 C 669.324219 232.75 665.480469 243.707031 661.765625 254.304688 C 661.054688 256.332031 660.351562 258.347656 659.621094 260.324219 C 658.757812 262.664062 657.460938 265.089844 656.097656 267.660156 C 655.238281 269.277344 654.335938 270.972656 653.570312 272.628906 C 651.414062 273.628906 649.386719 274.90625 647.601562 276.464844 C 640.421875 282.742188 633.800781 290.640625 629.03125 298.921875 C 617.019531 319.101562 607.144531 349.414062 611.574219 372.796875 L 641.28125 310.984375 C 650.648438 315.132812 656.007812 324.707031 662.546875 331.601562 C 671.816406 341.84375 683.546875 348.140625 696.042969 353.644531 C 710.050781 359.800781 724.539062 365.25 739.71875 367.648438 C 754.34375 369.964844 770.328125 368.917969 784.789062 365.839844 C 789 364.945312 793.226562 364.125 797.417969 363.136719 C 801.21875 362.238281 812.621094 356.890625 812.855469 346.421875 C 812.976562 341.105469 789.863281 344.605469 789.863281 344.605469 " fill-opacity="1" fill-rule="nonzero"/><path fill="#ffffff" d="M 721.277344 208.777344 C 714.898438 204.328125 709.308594 205.421875 702.199219 207.519531 C 693.210938 210.191406 682.289062 217.070312 675.289062 223.480469 C 665.363281 232.574219 661.640625 246.734375 657 259.351562 C 655.277344 264.035156 651.355469 269.746094 649.660156 274.851562 C 657.636719 269.28125 668.953125 268.359375 677.183594 273.621094 C 677.863281 274.054688 678.527344 274.527344 679.140625 275.046875 C 676.882812 256.074219 693.519531 227.121094 708.507812 222.171875 C 713.285156 230.738281 719.402344 249.664062 727.058594 248.484375 C 727.101562 265.5 717.46875 284.921875 704.480469 290.339844 C 706.605469 297.835938 715.972656 296.03125 723.726562 292.921875 C 737.25 287.804688 743.328125 276.609375 746.585938 262.621094 C 749.5 250.128906 742.949219 233.367188 735.359375 223.707031 C 731.203125 218.417969 726.863281 212.652344 721.277344 208.777344 " fill-opacity="1" fill-rule="nonzero"/><path fill="#ffffff" d="M 645.328125 397.152344 C 645.328125 387.933594 646.746094 376.339844 645.683594 367.0625 L 645.789062 367.046875 C 645.789062 367.046875 643.457031 359.382812 649.527344 348.1875 C 655.59375 336.996094 628.53125 289.203125 628.53125 289.203125 L 621.53125 285.46875 L 609.859375 300.394531 C 595.863281 330.238281 576.734375 336.765625 576.734375 336.765625 L 579.144531 370.15625 C 570.964844 381.25 566.945312 397.34375 563.433594 409.046875 C 552.234375 443.320312 544.535156 478.996094 540.335938 514.667969 C 536.835938 544.046875 538.238281 576.222656 538.238281 606.304688 C 547.335938 605.601562 555.734375 601.40625 565.535156 600.707031 C 578.132812 600.007812 590.734375 601.40625 603.332031 603.503906 C 618.03125 606.304688 632.730469 608.402344 647.429688 611.898438 C 656.527344 613.996094 669.125 620.992188 678.925781 618.894531 C 721.621094 610.5 661.425781 467.101562 653.027344 439.824219 C 648.828125 425.132812 646.027344 411.84375 645.328125 397.152344 " fill-opacity="1" fill-rule="nonzero"/><g clip-path="url(#76d45e71cc)"><path fill="#ffffff" d="M 911.074219 574.558594 C 904.773438 541.679688 903.054688 522.554688 894.65625 490.378906 C 882.757812 447.707031 867.21875 416.738281 850.417969 375.46875 C 848.320312 369.875 845.519531 363.578125 843.417969 357.980469 L 843.222656 357.980469 C 840.449219 337.292969 831.671875 275.511719 824.355469 262.261719 C 827.386719 266.152344 830.824219 269.566406 835.316406 272.390625 C 841.609375 276.347656 845.976562 277.363281 845.507812 268.347656 C 848.503906 272.566406 854.230469 276.511719 858.511719 271.425781 C 861.988281 267.292969 859.726562 260.296875 858.578125 255.695312 C 874.90625 255.882812 861.726562 244.144531 860.480469 235.761719 C 859.578125 229.691406 864.875 232.230469 866.398438 227.800781 C 868.453125 221.792969 856.011719 214.269531 852.109375 211.945312 C 855.136719 207.195312 855.453125 202.132812 852.660156 197.230469 C 847.296875 187.820312 834.367188 183.0625 824.816406 179.5 C 816.734375 176.484375 807.269531 170.648438 798.320312 173.480469 C 789.882812 176.144531 785.992188 186.800781 783.484375 194.4375 C 781.113281 201.660156 777.953125 210.5625 780.214844 218.191406 C 782.628906 226.324219 791.890625 227.09375 798.660156 229.464844 C 808.945312 233.066406 813.167969 244.839844 818.433594 253.5 C 819.429688 255.140625 820.429688 256.714844 821.457031 258.238281 C 813.292969 249.441406 802.882812 255.460938 801.617188 256.261719 C 803.101562 255.722656 804.625 255.402344 806.195312 255.347656 C 806.195312 255.347656 814.121094 251.375 820.839844 264.960938 C 822.503906 270.289062 821.578125 271.8125 820.320312 277.535156 C 817.074219 292.113281 801.871094 301.414062 789.84375 308.273438 C 786.007812 310.453125 781.992188 312.480469 777.859375 314.316406 C 777.695312 316.355469 777.652344 318.371094 777.75 320.347656 C 778.703125 339.761719 788.320312 355.265625 793.582031 362.386719 C 789.703125 373.578125 789.980469 387.398438 788.824219 397.847656 C 785.324219 435.621094 781.125 473.394531 773.425781 510.464844 C 770.625 525.855469 759.425781 548.238281 776.222656 554.535156 C 788.824219 559.429688 801.421875 560.832031 813.320312 568.523438 C 834.320312 582.515625 841.320312 591.609375 855.316406 612.59375 C 863.015625 623.785156 870.71875 635.675781 880.515625 645.46875 C 888.214844 654.5625 896.613281 667.152344 905.714844 655.960938 C 921.113281 637.78125 915.273438 594.84375 911.074219 574.558594 " fill-opacity="1" fill-rule="nonzero"/></g><g clip-path="url(#f1a8eba182)"><path fill="#f5918b" d="M 740.355469 218.597656 C 733.824219 202.929688 734.425781 184.292969 747.484375 180.492188 C 757.816406 173.117188 772.992188 186.8125 780.828125 203.082031 C 781.597656 200.078125 782.59375 197.136719 783.492188 194.4375 C 784.652344 190.882812 786.132812 186.660156 788.234375 182.910156 C 788.050781 182.410156 787.84375 181.933594 787.648438 181.484375 C 786.105469 178 783.894531 174.78125 781.265625 171.972656 C 781.933594 171.71875 782.507812 171.46875 782.882812 171.253906 C 786.820312 169.242188 789.828125 165.71875 793.765625 163.703125 C 804.515625 158.285156 815.082031 159.503906 826.773438 160.3125 C 831.324219 160.804688 864.820312 165.371094 864.390625 157.898438 C 864.164062 154.859375 858.960938 154.707031 862.191406 151.15625 C 864.175781 148.71875 869.148438 147.265625 871.667969 145.21875 C 876.046875 141.488281 885.066406 130.925781 881.996094 124.78125 C 879.464844 125.175781 878.808594 128.574219 877.4375 130.433594 C 875.644531 132.585938 873.542969 134.324219 870.886719 135.445312 C 860.074219 140.394531 849.859375 138.40625 838.394531 137.554688 C 821.191406 136.171875 802.265625 140.464844 787.96875 150.421875 C 784.929688 152.761719 776.40625 159.363281 772.777344 165.28125 C 761.75 158.949219 747.875 158.75 738.625 170.265625 C 732.324219 178 729.605469 189.792969 731.023438 200.175781 C 732.046875 205.78125 735.222656 214.21875 740.355469 218.597656 " fill-opacity="1" fill-rule="nonzero"/></g><path fill="#f5918b" d="M 781.644531 556.453125 C 781.542969 575.425781 780.84375 595.78125 780.855469 615.394531 C 780.871094 633.945312 781.515625 651.824219 783.894531 667.214844 C 784.46875 670.863281 780.085938 674.601562 780.941406 676.476562 C 784.929688 685.246094 798.148438 679.832031 801.367188 668.34375 C 803.953125 659.113281 804.097656 643.21875 804.714844 638.226562 C 807.679688 615.578125 811.542969 592.953125 816.371094 570.601562 C 815.394531 569.929688 814.371094 569.230469 813.320312 568.53125 C 803.128906 561.941406 792.421875 559.964844 781.644531 556.453125 " fill-opacity="1" fill-rule="nonzero"/><g clip-path="url(#418fa74de7)"><path fill="#f5918b" d="M 883.988281 657.742188 C 882.183594 653.011719 880.597656 648.535156 879.214844 644.140625 C 870.027344 634.617188 862.667969 623.28125 855.316406 612.597656 C 843.589844 594.996094 836.769531 585.765625 822.492188 575.003906 C 823.945312 581.023438 825.765625 587.023438 827.992188 593.011719 C 834.238281 611.742188 854.296875 643.332031 864.136719 660.945312 C 871.585938 673.453125 866.851562 678.152344 871.417969 682.726562 C 875.976562 687.285156 880.265625 682.898438 883.191406 676.890625 C 886.117188 670.890625 886.367188 663.195312 883.988281 657.742188 " fill-opacity="1" fill-rule="nonzero"/></g><path fill="#f5918b" d="M 825.246094 222.136719 C 822.339844 220.039062 819.605469 216.695312 818.121094 214.988281 C 816.132812 212.667969 812.144531 204.03125 808.816406 204.03125 C 804.839844 204.03125 807.496094 211 802.175781 210.667969 C 797.519531 210.34375 792.207031 202.371094 790.546875 198.722656 C 790.152344 197.863281 789.925781 196.621094 789.882812 195.152344 C 774.347656 210.441406 781.070312 248.550781 802.347656 255.855469 C 805.46875 254.144531 816.515625 249.390625 824.042969 261.6875 C 831.421875 273.703125 840.410156 336.996094 843.222656 357.980469 L 843.417969 357.980469 C 843.472656 358.117188 843.515625 358.246094 843.570312 358.386719 C 845.140625 349.6875 845.53125 336.757812 846.414062 330.65625 C 849.003906 312.679688 848.667969 304.722656 844.328125 289.066406 C 842.578125 282.394531 834.824219 262.214844 825.402344 254.367188 C 825.390625 254.367188 825.390625 254.367188 825.375 254.359375 C 824.800781 253.867188 824.214844 253.433594 823.613281 253.042969 C 816.640625 245.402344 822.429688 239.230469 824.773438 229.929688 C 825.402344 227.089844 825.5 224.558594 825.246094 222.136719 " fill-opacity="1" fill-rule="nonzero"/><path fill="#f5918b" d="M 806.195312 255.347656 C 791.382812 255.910156 780.550781 279.34375 768.382812 286.042969 C 741.605469 299.726562 704.578125 298.113281 696.234375 296.03125 C 687.886719 293.933594 676.679688 279.191406 672.8125 281.664062 C 668.933594 284.140625 674.003906 289.496094 674.003906 289.496094 L 674.394531 289.621094 C 674.398438 289.621094 674.402344 289.628906 674.402344 289.628906 L 678.722656 290.949219 C 678.730469 290.949219 678.734375 290.949219 678.734375 290.957031 L 674.394531 289.628906 C 671.59375 289.386719 668.53125 289.863281 665.8125 289.316406 C 663.839844 288.859375 654.710938 285.738281 653.035156 287.585938 C 650.878906 290.058594 656.335938 298.578125 658.210938 299.996094 C 662.078125 302.972656 667.941406 305.054688 672.480469 306.75 C 675.835938 308.148438 681.425781 309.503906 682.640625 310.050781 C 683.5625 310.460938 694.257812 314.21875 703.625 317.492188 C 712.179688 317.242188 718.800781 316.308594 721.753906 315.449219 C 730.027344 313.042969 736.757812 295.878906 740.722656 298.203125 C 744.683594 300.542969 740.652344 309.546875 740.652344 309.546875 C 740.652344 309.546875 761.667969 299.304688 763.132812 304.414062 C 765.105469 311.253906 761.453125 317.367188 757.855469 321.214844 C 759.28125 320.863281 760.710938 320.488281 762.125 320.082031 C 763.542969 319.664062 764.953125 319.230469 766.355469 318.765625 C 774.582031 316.054688 782.523438 312.445312 789.84375 308.273438 C 801.871094 301.421875 817.074219 292.113281 820.320312 277.539062 C 821.578125 271.816406 822.503906 270.292969 820.839844 264.960938 C 814.121094 251.375 806.195312 255.347656 806.195312 255.347656 " fill-opacity="1" fill-rule="nonzero"/><path fill="#aa5a58" d="M 781.429688 220.394531 C 781.40625 219.617188 781.402344 218.847656 781.417969 218.082031 C 781.425781 217.726562 781.429688 217.378906 781.445312 217.023438 C 781.480469 216.328125 781.527344 215.632812 781.589844 214.945312 C 781.621094 214.558594 781.652344 214.171875 781.699219 213.78125 C 781.773438 213.117188 781.878906 212.460938 781.988281 211.796875 C 782.046875 211.433594 782.097656 211.054688 782.167969 210.683594 C 782.359375 209.6875 782.578125 208.707031 782.847656 207.742188 C 782.578125 207.039062 782.289062 206.332031 781.988281 205.632812 C 781.910156 205.449219 781.828125 205.269531 781.746094 205.085938 C 781.472656 204.460938 781.183594 203.832031 780.886719 203.214844 C 780.867188 203.167969 780.851562 203.125 780.828125 203.085938 C 772.992188 186.8125 757.824219 173.117188 747.484375 180.492188 C 723.53125 187.472656 741.496094 244.339844 768.453125 241.347656 C 769.125 241.277344 769.789062 241.195312 770.425781 241.085938 C 764.925781 247.8125 760.476562 255.40625 758.726562 261.6875 C 754.890625 275.425781 749.695312 285.917969 743.855469 294.371094 C 752.273438 292.605469 760.742188 289.949219 768.386719 286.042969 C 776.644531 281.496094 784.289062 269.246094 792.980469 261.660156 C 793.425781 258.0625 793.679688 254.386719 793.710938 250.609375 C 786.078125 243.566406 781.753906 231.792969 781.429688 220.394531 " fill-opacity="1" fill-rule="nonzero"/><path fill="#aa5a58" d="M 776.222656 554.539062 C 759.425781 548.246094 770.625 525.859375 773.425781 510.472656 C 775.695312 499.53125 777.667969 488.535156 779.386719 477.496094 C 779.386719 477.496094 778.738281 477.628906 778.394531 477.695312 C 766.882812 480 755.378906 482.152344 743.855469 483.929688 C 739.234375 484.644531 734.621094 485.300781 730 485.890625 C 730.304688 496.4375 730.738281 506.972656 733.023438 517.074219 C 734.085938 521.761719 737.871094 530.070312 734.460938 534.390625 C 731.410156 538.265625 728.039062 532.535156 724.484375 531.007812 C 726.429688 549.054688 727.746094 565.015625 727.5625 575.203125 C 727.238281 593.75 727.578125 611.648438 729.6875 627.074219 C 730.195312 630.742188 725.746094 634.390625 726.570312 636.28125 C 730.386719 645.109375 743.703125 639.945312 747.132812 628.515625 C 749.878906 619.324219 750.308594 603.445312 751.007812 598.464844 C 752.273438 590.027344 753.65625 581.597656 755.183594 573.1875 C 761.46875 589.515625 769.503906 607.15625 774.25 618.878906 C 780.074219 632.222656 774.796875 636.292969 778.746094 641.402344 C 779.640625 642.5625 780.59375 643.25 781.542969 643.554688 C 781.042969 634.519531 780.871094 625.046875 780.855469 615.394531 C 780.84375 595.792969 781.542969 575.425781 781.644531 556.46875 C 779.832031 555.878906 778.027344 555.238281 776.222656 554.539062 " fill-opacity="1" fill-rule="nonzero"/><path fill="#aa5a58" d="M 666.640625 656.023438 C 668.40625 644.6875 669.214844 632 669.535156 618.695312 C 661.898438 617.242188 653.804688 613.363281 647.433594 611.898438 C 646.148438 611.585938 644.871094 611.296875 643.585938 611.011719 C 644.382812 616.359375 645.136719 621.691406 645.835938 627.035156 C 646.4375 632.027344 646.582031 647.921875 649.167969 657.152344 C 652.386719 668.640625 665.617188 674.054688 669.589844 665.285156 C 670.449219 663.410156 666.066406 659.671875 666.640625 656.023438 " fill-opacity="1" fill-rule="nonzero"/><path fill="#aa5a58" d="M 576.753906 600.609375 C 576.515625 601.839844 576.308594 603.085938 576.09375 604.3125 C 573.703125 618.527344 570.386719 630.015625 565.148438 643.753906 C 562.769531 649.207031 563.019531 656.902344 565.945312 662.902344 C 568.871094 668.90625 573.167969 673.296875 577.71875 668.738281 C 582.285156 664.164062 577.554688 659.464844 584.996094 646.957031 C 591.089844 636.070312 601.085938 619.84375 609.304688 604.609375 C 607.3125 604.242188 605.324219 603.882812 603.335938 603.503906 C 594.472656 602.035156 585.613281 600.898438 576.753906 600.609375 " fill-opacity="1" fill-rule="nonzero"/><path fill="#aa5a58" d="M 686.800781 349.304688 L 666.90625 364.65625 C 664.078125 365.363281 662.566406 364.792969 659.164062 366.0625 C 653.914062 368.039062 654.054688 371.425781 659.429688 372.769531 C 659.796875 372.851562 660.113281 372.878906 660.410156 372.90625 C 660.214844 373.074219 660.015625 373.246094 659.796875 373.453125 C 656.980469 376.140625 655.554688 378.140625 653.984375 381.59375 C 648.734375 393.988281 663.703125 390.644531 669.355469 387.039062 C 678.636719 380.851562 706.214844 368.304688 706.214844 368.304688 C 709.574219 366.136719 712.921875 363.925781 716.265625 361.660156 C 709.40625 359.320312 702.660156 356.566406 696.035156 353.644531 C 692.902344 352.261719 689.808594 350.828125 686.800781 349.304688 " fill-opacity="1" fill-rule="nonzero"/><path fill="#aa5a58" d="M 699.6875 346.527344 C 711.644531 344.761719 723.792969 340.585938 734.855469 335.171875 C 738.636719 336.722656 742.351562 338.085938 745.886719 339.230469 C 753.277344 332.839844 760.207031 326.039062 766.355469 318.765625 C 763.546875 319.695312 760.710938 320.507812 757.851562 321.214844 C 761.453125 317.371094 765.113281 311.253906 763.136719 304.414062 C 761.65625 299.300781 740.648438 309.546875 740.648438 309.546875 C 740.648438 309.546875 744.6875 300.535156 740.722656 298.207031 C 736.765625 295.878906 730.023438 313.039062 721.757812 315.445312 C 713.496094 317.847656 676.558594 320.835938 649.289062 308.160156 C 644.507812 305.753906 640.011719 300.734375 636.382812 296.914062 C 633.070312 293.4375 629.917969 289.285156 626.457031 285.511719 C 645.679688 291.6875 665.519531 279.328125 672.976562 260.578125 C 678.449219 246.832031 688.390625 221.503906 666.671875 218.4375 C 663.058594 217.925781 659.15625 218.136719 655.542969 218.726562 C 640.539062 221.175781 633.1875 229.203125 622.582031 240.800781 C 613.179688 251.882812 608.449219 266.289062 613.941406 276.152344 C 613.273438 275.894531 612.589844 275.664062 611.882812 275.472656 C 601.351562 273.863281 590.460938 280.445312 585.996094 290.058594 C 581.984375 298.707031 579.132812 308.605469 578.132812 318.109375 C 577.445312 323.859375 577.128906 330.117188 577.238281 336.570312 C 579.171875 335.785156 586.503906 332.375 594.824219 323.320312 C 602.269531 326.011719 608.667969 331.511719 615.269531 335.1875 C 627.171875 342.1875 640.257812 344.695312 653.820312 346.207031 C 669.035156 347.90625 684.480469 348.769531 699.6875 346.527344 " fill-opacity="1" fill-rule="nonzero"/></svg>